<svg width="175" height="40" viewBox="0 0 175 40" fill="none" xmlns="http://www.w3.org/2000/svg">
<rect width="175" height="40" rx="10" fill="url(#paint0_linear_4322_1183)"/>
<path d="M21.076 14.8182H22.6072V22.0369C22.6072 22.6899 22.478 23.2483 22.2195 23.7124C21.9643 24.1764 21.6046 24.531 21.1406 24.7763C20.6766 25.0182 20.133 25.1392 19.5099 25.1392C18.9366 25.1392 18.4212 25.0348 17.9638 24.826C17.5097 24.6172 17.1501 24.3139 16.8849 23.9162C16.6231 23.5152 16.4922 23.0279 16.4922 22.4545H18.0185C18.0185 22.7363 18.0831 22.9799 18.2124 23.1854C18.3449 23.3909 18.5256 23.5516 18.7543 23.6676C18.9863 23.7803 19.2514 23.8366 19.5497 23.8366C19.8745 23.8366 20.1496 23.7687 20.375 23.6328C20.6037 23.4936 20.7777 23.2898 20.897 23.0213C21.0163 22.7528 21.076 22.4247 21.076 22.0369V14.8182ZM27.9405 25.1541C27.2246 25.1541 26.5998 24.9901 26.0662 24.6619C25.5326 24.3338 25.1183 23.8748 24.8233 23.2848C24.5283 22.6948 24.3809 22.0054 24.3809 21.2166C24.3809 20.4245 24.5283 19.7318 24.8233 19.1385C25.1183 18.5452 25.5326 18.0845 26.0662 17.7564C26.5998 17.4283 27.2246 17.2642 27.9405 17.2642C28.6564 17.2642 29.2812 17.4283 29.8148 17.7564C30.3484 18.0845 30.7627 18.5452 31.0577 19.1385C31.3527 19.7318 31.5002 20.4245 31.5002 21.2166C31.5002 22.0054 31.3527 22.6948 31.0577 23.2848C30.7627 23.8748 30.3484 24.3338 29.8148 24.6619C29.2812 24.9901 28.6564 25.1541 27.9405 25.1541ZM27.9455 23.9062C28.4095 23.9062 28.794 23.7836 29.0989 23.5384C29.4038 23.2931 29.6292 22.9666 29.775 22.5589C29.9242 22.1513 29.9988 21.7022 29.9988 21.2116C29.9988 20.7244 29.9242 20.277 29.775 19.8693C29.6292 19.4583 29.4038 19.1286 29.0989 18.88C28.794 18.6314 28.4095 18.5071 27.9455 18.5071C27.4782 18.5071 27.0904 18.6314 26.7821 18.88C26.4772 19.1286 26.2502 19.4583 26.101 19.8693C25.9552 20.277 25.8823 20.7244 25.8823 21.2116C25.8823 21.7022 25.9552 22.1513 26.101 22.5589C26.2502 22.9666 26.4772 23.2931 26.7821 23.5384C27.0904 23.7836 27.4782 23.9062 27.9455 23.9062ZM33.1594 25V17.3636H34.646V25H33.1594ZM33.9102 16.1854C33.6516 16.1854 33.4296 16.0992 33.244 15.9268C33.0617 15.7512 32.9705 15.5424 32.9705 15.3004C32.9705 15.0552 33.0617 14.8464 33.244 14.674C33.4296 14.4983 33.6516 14.4105 33.9102 14.4105C34.1687 14.4105 34.3891 14.4983 34.5714 14.674C34.757 14.8464 34.8498 15.0552 34.8498 15.3004C34.8498 15.5424 34.757 15.7512 34.5714 15.9268C34.3891 16.0992 34.1687 16.1854 33.9102 16.1854ZM38.1323 20.4659V25H36.6458V17.3636H38.0726V18.6065H38.1671C38.3427 18.2022 38.6178 17.8774 38.9924 17.6321C39.3702 17.3868 39.8458 17.2642 40.4192 17.2642C40.9396 17.2642 41.3953 17.3736 41.7864 17.5923C42.1775 17.8078 42.4808 18.1293 42.6962 18.5568C42.9116 18.9844 43.0194 19.513 43.0194 20.1428V25H41.5328V20.3217C41.5328 19.7682 41.3887 19.3357 41.1003 19.0241C40.812 18.7093 40.4159 18.5518 39.9121 18.5518C39.5674 18.5518 39.2608 18.6264 38.9924 18.7756C38.7272 18.9247 38.5167 19.1435 38.361 19.4318C38.2085 19.7169 38.1323 20.0616 38.1323 20.4659ZM52.2827 17.3636V18.5568H48.1115V17.3636H52.2827ZM49.2301 15.5341H50.7166V22.7578C50.7166 23.0462 50.7597 23.2633 50.8459 23.4091C50.9321 23.5516 51.0431 23.6494 51.179 23.7024C51.3182 23.7521 51.469 23.777 51.6314 23.777C51.7507 23.777 51.8551 23.7687 51.9446 23.7521C52.0341 23.7356 52.1037 23.7223 52.1534 23.7124L52.4219 24.9403C52.3357 24.9735 52.2131 25.0066 52.054 25.0398C51.8949 25.0762 51.696 25.0961 51.4574 25.0994C51.0663 25.1061 50.7017 25.0365 50.3636 24.8906C50.0256 24.7448 49.7521 24.5194 49.5433 24.2145C49.3345 23.9096 49.2301 23.5268 49.2301 23.0661V15.5341ZM55.5776 20.4659V25H54.0911V14.8182H55.5577V18.6065H55.6522C55.8311 18.1955 56.1046 17.8691 56.4725 17.6271C56.8404 17.3852 57.321 17.2642 57.9142 17.2642C58.4379 17.2642 58.8953 17.3719 59.2864 17.5874C59.6808 17.8028 59.9857 18.1243 60.2012 18.5518C60.4199 18.9761 60.5293 19.5064 60.5293 20.1428V25H59.0428V20.3217C59.0428 19.7616 58.8986 19.3274 58.6103 19.0192C58.3219 18.7076 57.9209 18.5518 57.4071 18.5518C57.0558 18.5518 56.7409 18.6264 56.4625 18.7756C56.1874 18.9247 55.9703 19.1435 55.8113 19.4318C55.6555 19.7169 55.5776 20.0616 55.5776 20.4659ZM65.8042 25.1541C65.0518 25.1541 64.4038 24.9934 63.8603 24.6719C63.32 24.3471 62.9024 23.8913 62.6074 23.3047C62.3158 22.7147 62.1699 22.0237 62.1699 21.2315C62.1699 20.4493 62.3158 19.7599 62.6074 19.1634C62.9024 18.5668 63.3134 18.1011 63.8404 17.7663C64.3707 17.4316 64.9905 17.2642 65.6998 17.2642C66.1306 17.2642 66.5482 17.3355 66.9526 17.478C67.3569 17.6205 67.7199 17.8442 68.0414 18.1491C68.3629 18.4541 68.6164 18.8501 68.802 19.3374C68.9876 19.8213 69.0804 20.4096 69.0804 21.1023V21.6293H63.0101V20.5156H67.6238C67.6238 20.1245 67.5442 19.7782 67.3851 19.4766C67.226 19.1716 67.0023 18.9313 66.714 18.7557C66.4289 18.58 66.0942 18.4922 65.7097 18.4922C65.2921 18.4922 64.9275 18.5949 64.6159 18.8004C64.3077 19.0026 64.0691 19.2678 63.9 19.5959C63.7343 19.9207 63.6515 20.2737 63.6515 20.6548V21.5249C63.6515 22.0353 63.7409 22.4695 63.9199 22.8274C64.1022 23.1854 64.3558 23.4588 64.6806 23.6477C65.0054 23.8333 65.3849 23.9261 65.8191 23.9261C66.1008 23.9261 66.3577 23.8864 66.5897 23.8068C66.8217 23.724 67.0222 23.6013 67.1912 23.4389C67.3603 23.2765 67.4895 23.076 67.579 22.8374L68.986 23.0909C68.8733 23.5052 68.6711 23.8681 68.3794 24.1797C68.0911 24.4879 67.7282 24.7282 67.2907 24.9006C66.8565 25.0696 66.361 25.1541 65.8042 25.1541ZM83.3986 19.9091C83.3986 20.9962 83.1998 21.9309 82.802 22.7131C82.4043 23.492 81.8591 24.0919 81.1664 24.5128C80.477 24.9304 79.6931 25.1392 78.8148 25.1392C77.9332 25.1392 77.146 24.9304 76.4533 24.5128C75.7639 24.0919 75.2203 23.4903 74.8226 22.7081C74.4249 21.9259 74.226 20.9929 74.226 19.9091C74.226 18.822 74.4249 17.889 74.8226 17.1101C75.2203 16.3279 75.7639 15.728 76.4533 15.3104C77.146 14.8894 77.9332 14.679 78.8148 14.679C79.6931 14.679 80.477 14.8894 81.1664 15.3104C81.8591 15.728 82.4043 16.3279 82.802 17.1101C83.1998 17.889 83.3986 18.822 83.3986 19.9091ZM81.8773 19.9091C81.8773 19.0805 81.7431 18.3828 81.4746 17.8161C81.2095 17.246 80.8449 16.8151 80.3809 16.5234C79.9202 16.2285 79.3981 16.081 78.8148 16.081C78.2282 16.081 77.7045 16.2285 77.2438 16.5234C76.7831 16.8151 76.4185 17.246 76.15 17.8161C75.8849 18.3828 75.7523 19.0805 75.7523 19.9091C75.7523 20.7377 75.8849 21.437 76.15 22.0071C76.4185 22.5739 76.7831 23.0047 77.2438 23.2997C77.7045 23.5914 78.2282 23.7372 78.8148 23.7372C79.3981 23.7372 79.9202 23.5914 80.3809 23.2997C80.8449 23.0047 81.2095 22.5739 81.4746 22.0071C81.7431 21.437 81.8773 20.7377 81.8773 19.9091ZM85.1946 25V17.3636H86.6314V18.5767H86.7109C86.8501 18.1657 87.0954 17.8426 87.4467 17.6072C87.8014 17.3686 88.2024 17.2493 88.6499 17.2493C88.7427 17.2493 88.852 17.2526 88.978 17.2592C89.1072 17.2659 89.2083 17.2741 89.2812 17.2841V18.706C89.2216 18.6894 89.1155 18.6712 88.9631 18.6513C88.8106 18.6281 88.6581 18.6165 88.5057 18.6165C88.1544 18.6165 87.8411 18.6911 87.5661 18.8402C87.2943 18.986 87.0788 19.1899 86.9197 19.4517C86.7607 19.7102 86.6811 20.0052 86.6811 20.3366V25H85.1946ZM93.4959 28.0227C92.8894 28.0227 92.3674 27.9432 91.9299 27.7841C91.4957 27.625 91.141 27.4145 90.8659 27.1527C90.5908 26.8909 90.3854 26.6042 90.2495 26.2926L91.5272 25.7656C91.6167 25.9115 91.736 26.0656 91.8851 26.228C92.0376 26.3937 92.2431 26.5346 92.5016 26.6506C92.7634 26.7666 93.0998 26.8246 93.5108 26.8246C94.0743 26.8246 94.54 26.687 94.9078 26.4119C95.2757 26.1402 95.4597 25.706 95.4597 25.1094V23.608H95.3652C95.2757 23.7704 95.1465 23.951 94.9775 24.1499C94.8117 24.3487 94.583 24.5211 94.2914 24.6669C93.9997 24.8127 93.6202 24.8857 93.1529 24.8857C92.5497 24.8857 92.0061 24.7448 91.5222 24.4631C91.0416 24.178 90.6605 23.7588 90.3787 23.2053C90.1003 22.6484 89.9611 21.964 89.9611 21.152C89.9611 20.34 90.0987 19.6439 90.3738 19.0639C90.6522 18.4839 91.0333 18.0398 91.5172 17.7315C92.0011 17.42 92.5497 17.2642 93.1628 17.2642C93.6368 17.2642 94.0196 17.3438 94.3113 17.5028C94.6029 17.6586 94.83 17.8409 94.9924 18.0497C95.1581 18.2585 95.2857 18.4425 95.3752 18.6016H95.4846V17.3636H96.9412V25.169C96.9412 25.8253 96.7888 26.3639 96.4838 26.7848C96.1789 27.2057 95.7663 27.5173 95.2459 27.7195C94.7289 27.9216 94.1455 28.0227 93.4959 28.0227ZM93.481 23.6527C93.9086 23.6527 94.2698 23.5533 94.5648 23.3544C94.8631 23.1522 95.0885 22.8639 95.2409 22.4893C95.3967 22.1115 95.4746 21.6591 95.4746 21.1321C95.4746 20.6184 95.3984 20.166 95.2459 19.7749C95.0935 19.3838 94.8697 19.0788 94.5748 18.8601C94.2798 18.638 93.9152 18.527 93.481 18.527C93.0336 18.527 92.6607 18.643 92.3624 18.875C92.0641 19.1037 91.8387 19.4152 91.6863 19.8097C91.5371 20.2041 91.4625 20.6449 91.4625 21.1321C91.4625 21.6326 91.5388 22.0717 91.6912 22.4496C91.8437 22.8274 92.0691 23.1224 92.3674 23.3345C92.669 23.5466 93.0402 23.6527 93.481 23.6527ZM101.157 25.169C100.673 25.169 100.236 25.0795 99.8446 24.9006C99.4535 24.7183 99.1436 24.4548 98.915 24.1101C98.6896 23.7654 98.5769 23.3428 98.5769 22.8423C98.5769 22.4115 98.6597 22.0568 98.8255 21.7784C98.9912 21.5 99.2149 21.2796 99.4966 21.1172C99.7783 20.9548 100.093 20.8321 100.441 20.7493C100.789 20.6664 101.144 20.6035 101.505 20.5604C101.963 20.5073 102.334 20.4643 102.619 20.4311C102.904 20.3946 103.111 20.3366 103.24 20.2571C103.369 20.1776 103.434 20.0483 103.434 19.8693V19.8345C103.434 19.4003 103.311 19.0639 103.066 18.8253C102.824 18.5866 102.463 18.4673 101.982 18.4673C101.482 18.4673 101.088 18.5784 100.799 18.8004C100.514 19.0192 100.317 19.2628 100.208 19.5312L98.8105 19.2131C98.9763 18.7491 99.2182 18.3745 99.5364 18.0895C99.8579 17.8011 100.227 17.5923 100.645 17.4631C101.063 17.3305 101.502 17.2642 101.963 17.2642C102.267 17.2642 102.591 17.3007 102.932 17.3736C103.277 17.4432 103.598 17.5724 103.896 17.7614C104.198 17.9503 104.445 18.2204 104.637 18.5717C104.829 18.9197 104.926 19.3722 104.926 19.929V25H103.474V23.956H103.414C103.318 24.1482 103.174 24.3371 102.982 24.5227C102.789 24.7083 102.543 24.8625 102.241 24.9851C101.939 25.1077 101.578 25.169 101.157 25.169ZM101.48 23.9759C101.891 23.9759 102.243 23.8946 102.534 23.7322C102.829 23.5698 103.053 23.3577 103.205 23.0959C103.361 22.8307 103.439 22.5473 103.439 22.2457V21.2614C103.386 21.3144 103.283 21.3641 103.131 21.4105C102.982 21.4536 102.811 21.4917 102.619 21.5249C102.427 21.5547 102.239 21.5829 102.057 21.6094C101.875 21.6326 101.722 21.6525 101.6 21.669C101.311 21.7055 101.048 21.7668 100.809 21.853C100.574 21.9392 100.385 22.0634 100.242 22.2259C100.103 22.3849 100.034 22.5971 100.034 22.8622C100.034 23.2301 100.169 23.5085 100.441 23.6974C100.713 23.883 101.059 23.9759 101.48 23.9759ZM108.392 20.4659V25H106.906V17.3636H108.332V18.6065H108.427C108.603 18.2022 108.878 17.8774 109.252 17.6321C109.63 17.3868 110.106 17.2642 110.679 17.2642C111.199 17.2642 111.655 17.3736 112.046 17.5923C112.437 17.8078 112.741 18.1293 112.956 18.5568C113.171 18.9844 113.279 19.513 113.279 20.1428V25H111.793V20.3217C111.793 19.7682 111.648 19.3357 111.36 19.0241C111.072 18.7093 110.676 18.5518 110.172 18.5518C109.827 18.5518 109.521 18.6264 109.252 18.7756C108.987 18.9247 108.777 19.1435 108.621 19.4318C108.468 19.7169 108.392 20.0616 108.392 20.4659ZM115.273 25V17.3636H116.759V25H115.273ZM116.023 16.1854C115.765 16.1854 115.543 16.0992 115.357 15.9268C115.175 15.7512 115.084 15.5424 115.084 15.3004C115.084 15.0552 115.175 14.8464 115.357 14.674C115.543 14.4983 115.765 14.4105 116.023 14.4105C116.282 14.4105 116.502 14.4983 116.685 14.674C116.87 14.8464 116.963 15.0552 116.963 15.3004C116.963 15.5424 116.87 15.7512 116.685 15.9268C116.502 16.0992 116.282 16.1854 116.023 16.1854ZM118.6 25V23.9808L122.736 18.7259V18.6562H118.734V17.3636H124.591V18.4474L120.613 23.6378V23.7074H124.73V25H118.6ZM128.706 25.169C128.222 25.169 127.785 25.0795 127.393 24.9006C127.002 24.7183 126.692 24.4548 126.464 24.1101C126.238 23.7654 126.126 23.3428 126.126 22.8423C126.126 22.4115 126.209 22.0568 126.374 21.7784C126.54 21.5 126.764 21.2796 127.045 21.1172C127.327 20.9548 127.642 20.8321 127.99 20.7493C128.338 20.6664 128.693 20.6035 129.054 20.5604C129.511 20.5073 129.883 20.4643 130.168 20.4311C130.453 20.3946 130.66 20.3366 130.789 20.2571C130.918 20.1776 130.983 20.0483 130.983 19.8693V19.8345C130.983 19.4003 130.86 19.0639 130.615 18.8253C130.373 18.5866 130.012 18.4673 129.531 18.4673C129.031 18.4673 128.636 18.5784 128.348 18.8004C128.063 19.0192 127.866 19.2628 127.756 19.5312L126.359 19.2131C126.525 18.7491 126.767 18.3745 127.085 18.0895C127.407 17.8011 127.776 17.5923 128.194 17.4631C128.612 17.3305 129.051 17.2642 129.511 17.2642C129.816 17.2642 130.139 17.3007 130.481 17.3736C130.826 17.4432 131.147 17.5724 131.445 17.7614C131.747 17.9503 131.994 18.2204 132.186 18.5717C132.378 18.9197 132.474 19.3722 132.474 19.929V25H131.023V23.956H130.963C130.867 24.1482 130.723 24.3371 130.531 24.5227C130.338 24.7083 130.091 24.8625 129.79 24.9851C129.488 25.1077 129.127 25.169 128.706 25.169ZM129.029 23.9759C129.44 23.9759 129.791 23.8946 130.083 23.7322C130.378 23.5698 130.602 23.3577 130.754 23.0959C130.91 22.8307 130.988 22.5473 130.988 22.2457V21.2614C130.935 21.3144 130.832 21.3641 130.68 21.4105C130.531 21.4536 130.36 21.4917 130.168 21.5249C129.975 21.5547 129.788 21.5829 129.606 21.6094C129.424 21.6326 129.271 21.6525 129.148 21.669C128.86 21.7055 128.597 21.7668 128.358 21.853C128.123 21.9392 127.934 22.0634 127.791 22.2259C127.652 22.3849 127.582 22.5971 127.582 22.8622C127.582 23.2301 127.718 23.5085 127.99 23.6974C128.262 23.883 128.608 23.9759 129.029 23.9759ZM138.019 17.3636V18.5568H133.848V17.3636H138.019ZM134.966 15.5341H136.453V22.7578C136.453 23.0462 136.496 23.2633 136.582 23.4091C136.668 23.5516 136.779 23.6494 136.915 23.7024C137.055 23.7521 137.205 23.777 137.368 23.777C137.487 23.777 137.591 23.7687 137.681 23.7521C137.77 23.7356 137.84 23.7223 137.89 23.7124L138.158 24.9403C138.072 24.9735 137.949 25.0066 137.79 25.0398C137.631 25.0762 137.432 25.0961 137.194 25.0994C136.803 25.1061 136.438 25.0365 136.1 24.8906C135.762 24.7448 135.488 24.5194 135.28 24.2145C135.071 23.9096 134.966 23.5268 134.966 23.0661V15.5341ZM139.663 25V17.3636H141.15V25H139.663ZM140.414 16.1854C140.156 16.1854 139.933 16.0992 139.748 15.9268C139.566 15.7512 139.474 15.5424 139.474 15.3004C139.474 15.0552 139.566 14.8464 139.748 14.674C139.933 14.4983 140.156 14.4105 140.414 14.4105C140.673 14.4105 140.893 14.4983 141.075 14.674C141.261 14.8464 141.354 15.0552 141.354 15.3004C141.354 15.5424 141.261 15.7512 141.075 15.9268C140.893 16.0992 140.673 16.1854 140.414 16.1854ZM146.366 25.1541C145.65 25.1541 145.026 24.9901 144.492 24.6619C143.958 24.3338 143.544 23.8748 143.249 23.2848C142.954 22.6948 142.807 22.0054 142.807 21.2166C142.807 20.4245 142.954 19.7318 143.249 19.1385C143.544 18.5452 143.958 18.0845 144.492 17.7564C145.026 17.4283 145.65 17.2642 146.366 17.2642C147.082 17.2642 147.707 17.4283 148.241 17.7564C148.774 18.0845 149.189 18.5452 149.483 19.1385C149.778 19.7318 149.926 20.4245 149.926 21.2166C149.926 22.0054 149.778 22.6948 149.483 23.2848C149.189 23.8748 148.774 24.3338 148.241 24.6619C147.707 24.9901 147.082 25.1541 146.366 25.1541ZM146.371 23.9062C146.835 23.9062 147.22 23.7836 147.525 23.5384C147.83 23.2931 148.055 22.9666 148.201 22.5589C148.35 22.1513 148.425 21.7022 148.425 21.2116C148.425 20.7244 148.35 20.277 148.201 19.8693C148.055 19.4583 147.83 19.1286 147.525 18.88C147.22 18.6314 146.835 18.5071 146.371 18.5071C145.904 18.5071 145.516 18.6314 145.208 18.88C144.903 19.1286 144.676 19.4583 144.527 19.8693C144.381 20.277 144.308 20.7244 144.308 21.2116C144.308 21.7022 144.381 22.1513 144.527 22.5589C144.676 22.9666 144.903 23.2931 145.208 23.5384C145.516 23.7836 145.904 23.9062 146.371 23.9062ZM153.072 20.4659V25H151.585V17.3636H153.012V18.6065H153.107C153.282 18.2022 153.557 17.8774 153.932 17.6321C154.31 17.3868 154.785 17.2642 155.359 17.2642C155.879 17.2642 156.335 17.3736 156.726 17.5923C157.117 17.8078 157.42 18.1293 157.636 18.5568C157.851 18.9844 157.959 19.513 157.959 20.1428V25H156.472V20.3217C156.472 19.7682 156.328 19.3357 156.04 19.0241C155.751 18.7093 155.355 18.5518 154.852 18.5518C154.507 18.5518 154.2 18.6264 153.932 18.7756C153.667 18.9247 153.456 19.1435 153.3 19.4318C153.148 19.7169 153.072 20.0616 153.072 20.4659Z" fill="white"/>
<defs>
<linearGradient id="paint0_linear_4322_1183" x1="166.723" y1="40" x2="103.417" y2="-17.5187" gradientUnits="userSpaceOnUse">
<stop stop-color="#4599F1"/>
<stop offset="1" stop-color="#1780ED"/>
</linearGradient>
</defs>
</svg>
