<svg width="119" height="34" viewBox="0 0 119 34" fill="none" xmlns="http://www.w3.org/2000/svg">
<path d="M34.6722 12.9321C31.1921 12.2774 27.3724 13.5891 25.093 16.3146C23.9012 17.7394 23.1333 19.4617 22.21 21.0752C21.0869 23.035 19.6931 24.8816 17.8709 26.2177C16.0488 27.5538 13.7605 28.3439 11.5189 28.0665C9.27725 27.789 7.1377 26.3331 6.35201 24.2157C5.42207 21.7122 6.64054 18.6605 8.94211 17.3044C10.2438 16.5559 11.8435 16.3177 13.3014 16.6721C13.4264 16.7024 13.5422 16.5848 13.5084 16.4607C12.4654 12.6366 14.4645 8.18092 18.0485 6.4625C21.7239 4.70027 26.6 6.03858 28.8616 9.42988L32.344 6.82426C29.5053 2.49637 23.8901 0.185939 18.8253 1.26236C13.7605 2.33879 9.55246 6.75324 8.72682 11.8624L8.70685 11.8579C8.70019 11.9267 7.75249 12.2685 7.64151 12.324C7.27974 12.5016 6.92463 12.6991 6.58062 12.9122C5.89259 13.3361 5.24673 13.8266 4.6497 14.3726C3.45564 15.4667 2.46132 16.7629 1.83322 18.2566C0.865541 20.5537 0.730155 23.1948 1.48255 25.574C2.31706 28.2152 4.23022 30.4945 6.68715 31.7729C10.2427 33.6239 14.6927 33.2755 18.2527 31.4333C21.8127 29.5912 24.5426 26.4063 26.4447 22.8774C27.2969 21.2972 28.0515 19.5727 29.4764 18.4785C31.5316 16.9027 34.7787 17.1935 36.5187 19.1088C38.261 21.0242 38.2388 24.2868 36.4743 26.1799C34.7099 28.0731 31.4584 28.3239 29.4232 26.7215C28.4466 27.9777 27.4678 29.2339 26.4913 30.4901C29.5319 32.9359 34.0596 33.3509 37.4931 31.4933C40.9266 29.6378 43.0595 25.6206 42.6777 21.7366C42.296 17.8526 39.4173 14.3304 35.6887 13.1807C35.3557 13.0786 35.0162 12.9943 34.6744 12.9299L34.6722 12.9321Z" fill="#1780ED" stroke="#1780ED" stroke-width="0.285715"/>
<path fill-rule="evenodd" clip-rule="evenodd" d="M49.6918 11.9384C49.045 13.43 48.7217 15.0364 48.7217 16.7575C48.7217 18.5203 49.0503 20.1788 49.7074 21.733C50.375 23.2872 51.3346 24.6432 52.5863 25.801C53.8381 26.9589 55.361 27.8716 57.1551 28.5391C58.9596 29.2067 60.9989 29.5405 63.2728 29.5405C64.9001 29.5405 66.3969 29.3684 67.7633 29.0242C69.1298 28.6695 70.3502 28.1793 71.4246 27.5534C72.499 26.9171 73.4221 26.1609 74.194 25.2847C74.9659 24.4085 75.5709 23.4489 76.009 22.4058C76.4575 21.3523 76.7287 20.2362 76.8226 19.0575C76.9269 17.8684 76.8487 16.6479 76.5879 15.3962L76.5723 15.4119V15.3962H63.5701V19.4799H72.113C71.967 20.3457 71.6645 21.128 71.2056 21.8269C70.7466 22.5153 70.152 23.1047 69.4219 23.5949C68.6917 24.0852 67.8364 24.4659 66.8559 24.7371C65.8753 24.9979 64.7957 25.1282 63.6171 25.1282C62.1359 25.1282 60.7955 24.9248 59.5959 24.518C58.3964 24.1008 57.3741 23.5271 56.5292 22.7969C55.6843 22.0668 55.0324 21.1958 54.5734 20.184C54.1145 19.1722 53.885 18.0613 53.885 16.8513C53.885 15.6831 54.104 14.6087 54.5421 13.6282C54.9802 12.6477 55.6165 11.808 56.451 11.1092C57.2855 10.3999 58.3077 9.85223 59.5177 9.46629C60.7277 9.06992 62.1046 8.87173 63.6483 8.87173C64.3159 8.87173 64.9783 8.90824 65.6354 8.98126C66.303 9.05427 66.9445 9.1638 67.5599 9.30983C68.1858 9.44543 68.7699 9.61754 69.3123 9.82616C69.8547 10.0243 70.3398 10.2486 70.7675 10.4989L73.0518 6.74383C72.3425 6.34746 71.5915 6.00846 70.7987 5.72682C70.0164 5.43476 69.208 5.19485 68.3736 5.00709C67.5495 4.81934 66.7098 4.68374 65.8545 4.60029C65.0096 4.50641 64.1647 4.45947 63.3198 4.45947C60.9832 4.45947 58.9075 4.77761 57.0925 5.4139C55.288 6.05018 53.765 6.92116 52.5238 8.02683C51.2825 9.1325 50.3385 10.4364 49.6918 11.9384ZM80.9253 4.75589H85.8852L94.7724 13.6743L103.66 4.75589H108.619V29.2111H103.66V11.6246L94.7724 20.1832L85.8852 11.6246V29.2111H80.9253V4.75589ZM113.742 4.7559H118.733V29.2111H113.742V4.7559Z" fill="#1780ED"/>
</svg>
